HIERARCHY
ROOT Hips
{
  OFFSET 3.13124 94.3669 -3.18751
  CHANNELS  6 Xposition Yposition Zposition Zrotation Xrotation Yrotation
  JOINT LeftUpLeg
  {
    OFFSET 8.64259 1.95398 -2.38835
    CHANNELS 3 Zrotation Xrotation Yrotation
    JOINT LeftLeg
    {
      OFFSET 43.7702 0 0
      CHANNELS 3 Zrotation Xrotation Yrotation
      JOINT LeftFoot
      {
        OFFSET 40.6238 0 0
        CHANNELS 3 Zrotation Xrotation Yrotation
        JOINT LeftToeBase
        {
          OFFSET 12.7242 0 0
          CHANNELS 3 Zrotation Xrotation Yrotation
          End Site
          {
            OFFSET 0 0 0
          }
        }
      }
    }
  }
  JOINT RightUpLeg
  {
    OFFSET -8.2249 1.95398 -2.59336
    CHANNELS 3 Zrotation Xrotation Yrotation
    JOINT RightLeg
    {
      OFFSET 43.5653 0 0
      CHANNELS 3 Zrotation Xrotation Yrotation
      JOINT RightFoot
      {
        OFFSET 40.6238 0 0
        CHANNELS 3 Zrotation Xrotation Yrotation
        JOINT RightToeBase
        {
          OFFSET 12.7242 0 0
          CHANNELS 3 Zrotation Xrotation Yrotation
          End Site
          {
            OFFSET 0 0 0
          }
        }
      }
    }
  }
  JOINT Spine
  {
    OFFSET 0.165834 0.87714 6.61349
    CHANNELS 3 Zrotation Xrotation Yrotation
    JOINT Spine1
    {
      OFFSET 7.38962 1.71661e-005 0
      CHANNELS 3 Zrotation Xrotation Yrotation
      JOINT Spine2
      {
        OFFSET 11.9445 1.14441e-005 0
        CHANNELS 3 Zrotation Xrotation Yrotation
        JOINT Spine3
        {
          OFFSET 14.7254 4.19617e-005 0
          CHANNELS 3 Zrotation Xrotation Yrotation
          JOINT Spine4
          {
            OFFSET 10.9679 0 0
            CHANNELS 3 Zrotation Xrotation Yrotation
            JOINT RightShoulder
            {
              OFFSET 2.46616 -1.6653 3.69651
              CHANNELS 3 Zrotation Xrotation Yrotation
              JOINT RightArm
              {
                OFFSET 13.0012 0 0
                CHANNELS 3 Zrotation Xrotation Yrotation
                JOINT RightForeArm
                {
                  OFFSET 28.7848 1.52588e-005 0
                  CHANNELS 3 Zrotation Xrotation Yrotation
                  JOINT RightHand
                  {
                    OFFSET 26.5688 1.52588e-005 0
                    CHANNELS 3 Zrotation Xrotation Yrotation
                    End Site
                    {
                      OFFSET 0 0 0
                    }
                  }
                }
              }
            }
            JOINT LeftShoulder
            {
              OFFSET 2.38034 -1.29275 -3.75231
              CHANNELS 3 Zrotation Xrotation Yrotation
              JOINT LeftArm
              {
                OFFSET 16.3182 6.10352e-005 0
                CHANNELS 3 Zrotation Xrotation Yrotation
                JOINT LeftForeArm
                {
                  OFFSET 27.0901 0 0
                  CHANNELS 3 Zrotation Xrotation Yrotation
                  JOINT LeftHand
                  {
                    OFFSET 24.5451 1.52588e-005 0
                    CHANNELS 3 Zrotation Xrotation Yrotation
                    End Site
                    {
                      OFFSET 0 0 0
                    }
                  }
                }
              }
            }
            JOINT Neck
            {
              OFFSET 5.0226 -0.0266342 0
              CHANNELS 3 Zrotation Xrotation Yrotation
              JOINT Head
              {
                OFFSET 6.69363 2.86102e-005 0
                CHANNELS 3 Zrotation Xrotation Yrotation
                End Site
                {
                  OFFSET 0 0 0
                }
              }
            }
          }
        }
      }
    }
  }
}
MOTION
Frames:	7
Frame Time:	0.0333333
1.47012 98.2105 -12.7042 133.057 -89.9946 133.125 -171.813 2.77093 91.6671 -8.96601 7.94215 2.2626 63.3999 0.968474 0.476947 28.7808 5.03288e-006 6.34818e-006 179.984 1.93322 90.1753 -7.68834 0.140502 0.014688 62.7752 -1.18682 -0.599488 28.7808 1.54818e-005 2.79948e-005 0.00544187 6.34072 -90.0685 14.1934 0.0142012 6.44692e-006 2.52251 9.14667e-006 -7.48845e-006 -20.0126 0.00471121 1.924e-006 -3.18055e-015 0.0047195 -1.16475e-018 100.73 -18.8447 -85.7068 -9.90552 31.3202 -2.2711 0.0318203 -0.0700719 -5.76221 -5.37983 -0.320016 -0.0162407 -78.866 -21.7081 94.5951 24.6719 -35.1974 1.20581 0.168122 34.8013 -8.32984 0.202255 0.0595484 2.30411 1.74812 0.00153321 0.00365821 -7.40955 0.000755807 -0.0014895 
1.4714 98.2076 -12.7432 151.31 -89.9308 151.345 -171.809 2.8177 91.638 -9.13324 8.01348 2.284 63.4234 0.971571 0.475819 28.7808 5.03288e-006 6.34818e-006 179.98 2.17698 90.1488 -8.26756 0.212617 0.014688 63.0195 -1.16443 -0.591505 28.7808 1.54818e-005 2.79948e-005 0.0030055 6.34097 -90.0384 14.1934 0.0142012 6.44692e-006 2.52251 9.14667e-006 -7.48845e-006 -20.0126 0.00471121 1.924e-006 2.55845e-022 0.0047195 -3.10601e-018 100.684 -18.7582 -85.7775 -9.81487 31.2884 -2.27328 0.0318996 -0.070072 -5.76099 -5.37983 -0.320016 -0.0162407 -78.7843 -21.8077 94.8309 24.598 -35.2144 0.987053 -0.0395753 34.6315 -8.12813 0.624093 0.0763285 2.00139 1.6649 0.0248438 0.0587467 -7.38946 0.0125333 -0.0241396 
1.47782 98.191 -12.7863 142.496 -89.8885 142.562 -171.811 2.73669 91.6608 -8.9678 8.07609 2.30733 63.4377 0.988035 0.489101 28.7808 5.03288e-006 6.34818e-006 179.976 2.3335 90.178 -8.59566 0.241478 0.0146881 63.1429 -1.146 -0.581745 28.7808 1.54818e-005 2.79948e-005 0.005206 6.34074 -90.066 14.1934 0.0142012 6.44692e-006 2.52251 9.14667e-006 -7.48845e-006 -20.0126 0.00471121 1.924e-006 -1.59028e-015 0.0047195 -0 100.69 -18.7421 -85.7654 -9.70059 31.3145 -2.35105 -0.0252975 -0.0700685 -5.78951 -5.37983 -0.320016 -0.0162407 -78.7459 -21.8664 94.9158 24.5904 -35.2075 1.00748 0.023086 34.6445 -8.17407 0.487813 0.0654868 1.87461 1.68209 0.031787 0.0616863 -7.39795 0.0212486 -0.028145 
1.4808 98.2158 -12.8286 146.525 -89.8735 146.588 -171.814 2.78119 91.6533 -9.02077 8.02307 2.28434 63.3366 0.979979 0.481255 28.7808 5.03288e-006 6.34818e-006 179.989 1.79887 90.1704 -7.4757 0.230795 0.0146881 62.6204 -1.21211 -0.61205 28.7808 1.54818e-005 2.79948e-005 0.00493201 6.34078 -90.0626 14.1935 0.0142012 -2.77728e-005 2.52253 -8.69736e-006 -4.06004e-005 -20.0126 0.00471121 -3.53746e-005 2.01037e-005 0.0047195 -3.7209e-005 100.665 -18.7581 -85.797 -9.64377 31.2963 -2.3936 -0.0361535 -0.070068 -5.79379 -5.37983 -0.320016 -0.0162407 -78.6241 -21.8679 95.2144 24.4201 -35.2078 0.743804 -0.116355 34.6017 -8.0052 0.787972 0.0717811 1.50757 1.76705 0.0364308 0.0633676 -7.45709 0.0249004 -0.0215721 
1.481 98.2198 -12.872 149.291 -89.8481 149.407 -171.811 2.68997 91.7013 -8.82303 8.10571 2.33028 63.2913 0.949469 0.467169 28.7808 5.03288e-006 6.34818e-006 -179.995 1.42249 90.2238 -6.69748 0.250173 0.0146881 62.231 -1.20885 -0.602928 28.7808 1.54818e-005 2.79948e-005 0.00813272 6.34058 -90.1015 14.1931 0.0142012 0.000667171 2.52211 0.000343981 0.000644633 -20.013 0.00471121 0.00072822 -0.000395886 0.0047195 0.000727253 100.624 -18.7985 -85.8926 -9.64583 31.2624 -2.36175 -0.0158259 -0.0700732 -5.75148 -5.37983 -0.320016 -0.0162407 -78.6043 -21.8536 95.2639 24.425 -35.1607 0.811024 -0.157537 34.4909 -7.97117 0.811595 0.0669555 1.29172 1.81453 0.0373437 0.0743481 -7.49532 0.023749 -0.0589036 
1.4765 98.2052 -12.9125 154.205 -89.7901 154.248 -171.804 2.8497 91.6322 -9.22502 8.08781 2.32204 63.3627 0.981647 0.478633 28.7808 5.03288e-006 6.34818e-006 179.987 2.38748 90.1672 -8.75818 0.270738 0.0146881 63.1418 -1.21372 -0.622809 28.7808 1.54818e-005 2.79948e-005 0.00375754 6.34591 -90.0112 14.182 0.0142012 0.0194886 2.51107 0.0100472 0.0190549 -20.0241 0.00471121 0.0213505 -0.011451 0.0047195 0.021343 100.64 -18.9296 -85.9163 -9.62901 31.2349 -2.34259 -0.0171314 -0.070074 -5.74493 -5.37983 -0.320016 -0.0162407 -78.5551 -21.7168 95.2994 24.407 -35.0465 0.804602 -0.310444 34.6218 -7.913 1.16749 0.0859988 1.31574 1.82629 0.00972341 -0.0883467 -7.45579 0.0228575 0.0108109 
1.47821 98.2395 -12.9581 147.958 -89.7712 148.062 -171.798 2.7686 91.6925 -8.96989 8.12006 2.3253 63.1996 0.896988 0.431417 28.7808 5.03288e-006 6.34818e-006 -179.965 0.850493 90.2158 -5.5545 0.339224 0.0146367 61.6786 -1.21667 -0.601314 28.7808 1.54818e-005 2.79948e-005 0.0091351 6.34853 -90.0599 14.1773 0.0134343 0.0293034 2.50639 0.015193 0.0286609 -20.0288 0.00416544 0.0321304 -0.0161191 0.00417302 0.0321316 100.679 -18.9995 -85.8203 -9.53207 31.2428 -2.46713 -0.0357166 -0.0700739 -5.74571 -5.37983 -0.320016 -0.0162407 -78.4766 -21.5191 95.4624 24.121 -35.2359 0.571463 -0.103074 34.875 -7.48547 0.55032 -0.00195791 -0.746965 1.95693 -0.00112075 -0.198008 -7.55469 0.0270853 0.0585545 
